<svg width="16" height="16" viewBox="0 0 16 16" fill="none" xmlns="http://www.w3.org/2000/svg">
  <path fill-rule="evenodd" clip-rule="evenodd" d="M10.8175 6.36337C10.8175 8.66779 8.74187 10.5359 6.18143 10.5359C3.621 10.5359 1.54536 8.66779 1.54536 6.36337C1.54536 4.05897 3.621 2.19088 6.18143 2.19088C8.74187 2.19088 10.8175 4.05897 10.8175 6.36337ZM9.97198 10.7583C8.92515 11.4906 7.60985 11.9267 6.18143 11.9267C2.76752 11.9267 0 9.43589 0 6.36337C0 3.29083 2.76752 0.800049 6.18143 0.800049C9.59532 0.800049 12.3629 3.29083 12.3629 6.36337C12.3629 7.64896 11.8783 8.83274 11.0646 9.77479L16 14.2166L14.9072 15.2L9.97198 10.7583Z" fill="#A9AEB8" />
</svg>