<svg width="21" height="18" viewBox="0 0 21 18" fill="none" xmlns="http://www.w3.org/2000/svg">
  <path d="M10.0243 17.4762C9.15293 17.4762 8.4123 17.1776 7.80237 16.5803C7.19244 15.9831 6.88748 15.2579 6.88748 14.4047H8.97866C8.97866 14.6948 9.07904 14.9378 9.27979 15.1337C9.47985 15.3303 9.728 15.4286 10.0243 15.4286C10.3205 15.4286 10.569 15.3303 10.7698 15.1337C10.9698 14.9378 11.0698 14.6948 11.0698 14.4047C11.0698 14.1147 10.9698 13.8717 10.7698 13.6758C10.569 13.4792 10.3205 13.3809 10.0243 13.3809H0.0911255V11.3333H10.0243C10.8956 11.3333 11.6362 11.6319 12.2461 12.2291C12.8561 12.8264 13.161 13.5516 13.161 14.4047C13.161 15.2579 12.8561 15.9831 12.2461 16.5803C11.6362 17.1776 10.8956 17.4762 10.0243 17.4762ZM0.0911255 7.23808V5.19046H14.2066C14.6597 5.19046 15.0344 5.04542 15.3306 4.75534C15.6269 4.46526 15.775 4.0984 15.775 3.65474C15.775 3.21109 15.6269 2.84423 15.3306 2.55415C15.0344 2.26407 14.6597 2.11903 14.2066 2.11903C13.7535 2.11903 13.3789 2.26407 13.0826 2.55415C12.7864 2.84423 12.6382 3.21109 12.6382 3.65474H10.5471C10.5471 2.648 10.8998 1.79892 11.6052 1.10751C12.3113 0.416776 13.1785 0.0714111 14.2066 0.0714111C15.2348 0.0714111 16.1019 0.416776 16.8081 1.10751C17.5135 1.79892 17.8662 2.648 17.8662 3.65474C17.8662 4.66149 17.5135 5.51023 16.8081 6.20096C16.1019 6.89237 15.2348 7.23808 14.2066 7.23808H0.0911255ZM17.3434 15.4286V13.3809C17.7965 13.3809 18.1712 13.2359 18.4674 12.9458C18.7637 12.6557 18.9118 12.2889 18.9118 11.8452C18.9118 11.4016 18.7637 11.0347 18.4674 10.7446C18.1712 10.4545 17.7965 10.3095 17.3434 10.3095H0.0911255V8.26189H17.3434C18.3716 8.26189 19.2387 8.60725 19.9448 9.29798C20.6503 9.9894 21.003 10.8385 21.003 11.8452C21.003 12.852 20.6503 13.701 19.9448 14.3925C19.2387 15.0832 18.3716 15.4286 17.3434 15.4286Z" fill="#1FBDE0" />
</svg>