<svg width="25" height="25" viewBox="0 0 25 25" fill="none" xmlns="http://www.w3.org/2000/svg">
  <mask id="mask0_38_226" style="mask-type:alpha" maskUnits="userSpaceOnUse" x="0" y="0" width="25" height="25">
    <rect width="25" height="25" fill="#D9D9D9" />
  </mask>
  <g mask="url(#mask0_38_226)">
    <path d="M14.5312 22.8125C14.2708 22.9514 14.0062 22.9729 13.7375 22.8771C13.468 22.782 13.2639 22.6042 13.125 22.3438L11.5625 19.2188C11.4236 18.9583 11.4021 18.6938 11.4979 18.425C11.593 18.1556 11.7708 17.9514 12.0312 17.8125C12.2916 17.6736 12.5562 17.6521 12.825 17.7479C13.0944 17.8431 13.2986 18.0208 13.4375 18.2813L15 21.4063C15.1389 21.6667 15.1607 21.9313 15.0656 22.2C14.9698 22.4695 14.7916 22.6736 14.5312 22.8125ZM20.7812 22.8125C20.5208 22.9514 20.2562 22.9729 19.9875 22.8771C19.718 22.782 19.5139 22.6042 19.375 22.3438L17.8125 19.2188C17.6736 18.9583 17.6521 18.6938 17.7479 18.425C17.843 18.1556 18.0208 17.9514 18.2812 17.8125C18.5416 17.6736 18.8062 17.6521 19.075 17.7479C19.3444 17.8431 19.5486 18.0208 19.6875 18.2813L21.25 21.4063C21.3889 21.6667 21.4107 21.9313 21.3156 22.2C21.2198 22.4695 21.0416 22.6736 20.7812 22.8125ZM8.28123 22.8125C8.02081 22.9514 7.75623 22.9729 7.48748 22.8771C7.21804 22.782 7.01387 22.6042 6.87498 22.3438L5.31248 19.2188C5.17359 18.9583 5.15206 18.6938 5.2479 18.425C5.34304 18.1556 5.52081 17.9514 5.78123 17.8125C6.04165 17.6736 6.30623 17.6521 6.57498 17.7479C6.84442 17.8431 7.04859 18.0208 7.18748 18.2813L8.74998 21.4063C8.88887 21.6667 8.91074 21.9313 8.8156 22.2C8.71977 22.4695 8.54165 22.6736 8.28123 22.8125ZM7.81248 16.6667C6.23262 16.6667 4.88297 16.1066 3.76352 14.9865C2.64338 13.867 2.08331 12.5174 2.08331 10.9375C2.08331 9.49654 2.56074 8.23786 3.5156 7.16147C4.47047 6.08508 5.65102 5.4514 7.05727 5.26043C7.61283 4.27084 8.37255 3.49376 9.33644 2.92918C10.2996 2.36529 11.3541 2.08334 12.5 2.08334C14.0625 2.08334 15.4208 2.58265 16.575 3.58126C17.7298 4.57918 18.4288 5.82466 18.6719 7.31772C19.8698 7.42189 20.8767 7.91668 21.6927 8.80209C22.5087 9.68751 22.9166 10.7465 22.9166 11.9792C22.9166 13.2813 22.4611 14.3882 21.55 15.3C20.6382 16.2111 19.5312 16.6667 18.2291 16.6667H7.81248ZM7.81248 14.5833H18.2291C18.9583 14.5833 19.5746 14.3316 20.0781 13.8281C20.5816 13.3247 20.8333 12.7083 20.8333 11.9792C20.8333 11.25 20.5816 10.6337 20.0781 10.1302C19.5746 9.62675 18.9583 9.37501 18.2291 9.37501H16.6666V8.33334C16.6666 7.18751 16.2587 6.20661 15.4427 5.39064C14.6267 4.57466 13.6458 4.16668 12.5 4.16668C11.6666 4.16668 10.9069 4.39237 10.2208 4.84376C9.5354 5.29515 9.01908 5.90279 8.67185 6.66668L8.41144 7.29168H7.7604C6.77081 7.3264 5.92463 7.69515 5.22185 8.39793C4.51838 9.1014 4.16665 9.94793 4.16665 10.9375C4.16665 11.9445 4.52255 12.8038 5.23435 13.5156C5.94616 14.2274 6.80553 14.5833 7.81248 14.5833Z" fill="#B34DE3" />
  </g>
</svg>