<svg width="24" height="24" viewBox="0 0 24 24" fill="none" xmlns="http://www.w3.org/2000/svg">
  <mask id="mask0_38_220" style="mask-type:alpha" maskUnits="userSpaceOnUse" x="0" y="0" width="24" height="24">
    <rect width="24" height="24" fill="#D9D9D9" />
  </mask>
  <g mask="url(#mask0_38_220)">
    <path d="M2 20.35V18.4C2.48333 18.4 2.89567 18.325 3.237 18.175C3.579 18.025 3.925 17.8627 4.275 17.688C4.625 17.5127 5.01267 17.354 5.438 17.212C5.86267 17.0707 6.38333 17 7 17C7.63333 17 8.154 17.0707 8.562 17.212C8.97067 17.354 9.35 17.5127 9.7 17.688C10.05 17.8627 10.4 18.025 10.75 18.175C11.1 18.325 11.5167 18.4 12 18.4C12.4833 18.4 12.9 18.325 13.25 18.175C13.6 18.025 13.95 17.8627 14.3 17.688C14.65 17.5127 15.0333 17.354 15.45 17.212C15.8667 17.0707 16.3833 17 17 17C17.6333 17 18.1583 17.0707 18.575 17.212C18.9917 17.354 19.375 17.5127 19.725 17.688C20.075 17.8627 20.425 18.025 20.775 18.175C21.125 18.325 21.5333 18.4 22 18.4V20.35C21.3667 20.35 20.8377 20.275 20.413 20.125C19.9877 19.975 19.6 19.8124 19.25 19.637C18.9 19.4624 18.5583 19.3044 18.225 19.163C17.8917 19.021 17.4833 18.95 17 18.95C16.5333 18.95 16.1293 19.021 15.788 19.163C15.446 19.3044 15.104 19.4624 14.762 19.637C14.4207 19.8124 14.0377 19.975 13.613 20.125C13.1877 20.275 12.65 20.35 12 20.35C11.35 20.35 10.8123 20.275 10.387 20.125C9.96233 19.975 9.57933 19.8124 9.238 19.637C8.896 19.4624 8.55833 19.3044 8.225 19.163C7.89167 19.021 7.48333 18.95 7 18.95C6.53333 18.95 6.12933 19.021 5.788 19.163C5.446 19.3044 5.1 19.4624 4.75 19.637C4.4 19.8124 4.01267 19.975 3.588 20.125C3.16267 20.275 2.63333 20.35 2 20.35ZM2 15.9V13.95C2.48333 13.95 2.89567 13.875 3.237 13.725C3.579 13.575 3.925 13.4127 4.275 13.238C4.625 13.0627 5.01267 12.904 5.438 12.762C5.86267 12.6207 6.38333 12.55 7 12.55C7.63333 12.55 8.154 12.6207 8.562 12.762C8.97067 12.904 9.35 13.0627 9.7 13.238C10.05 13.4127 10.4 13.575 10.75 13.725C11.1 13.875 11.5167 13.95 12 13.95C12.4833 13.95 12.9 13.875 13.25 13.725C13.6 13.575 13.95 13.4127 14.3 13.238C14.65 13.0627 15.0333 12.904 15.45 12.762C15.8667 12.6207 16.3833 12.55 17 12.55C17.6333 12.55 18.1583 12.6207 18.575 12.762C18.9917 12.904 19.375 13.0627 19.725 13.238C20.075 13.4127 20.425 13.575 20.775 13.725C21.125 13.875 21.5333 13.95 22 13.95V15.9C21.3667 15.9 20.8377 15.825 20.413 15.675C19.9877 15.525 19.6 15.3627 19.25 15.188C18.9 15.0127 18.5583 14.854 18.225 14.712C17.8917 14.5707 17.4833 14.5 17 14.5C16.5167 14.5 16.1043 14.5707 15.763 14.712C15.421 14.854 15.0793 15.0127 14.738 15.188C14.396 15.3627 14.0167 15.525 13.6 15.675C13.1833 15.825 12.65 15.9 12 15.9C11.35 15.9 10.8123 15.825 10.387 15.675C9.96233 15.525 9.57933 15.3627 9.238 15.188C8.896 15.0127 8.55833 14.854 8.225 14.712C7.89167 14.5707 7.48333 14.5 7 14.5C6.53333 14.5 6.12933 14.5707 5.788 14.712C5.446 14.854 5.1 15.0127 4.75 15.188C4.4 15.3627 4.01267 15.525 3.588 15.675C3.16267 15.825 2.63333 15.9 2 15.9ZM2 11.45V9.50002C2.48333 9.50002 2.89567 9.42502 3.237 9.27502C3.579 9.12502 3.925 8.96236 4.275 8.78702C4.625 8.61236 5.01267 8.45402 5.438 8.31202C5.86267 8.17069 6.38333 8.10002 7 8.10002C7.63333 8.10002 8.154 8.17069 8.562 8.31202C8.97067 8.45402 9.35 8.61236 9.7 8.78702C10.05 8.96236 10.4 9.12502 10.75 9.27502C11.1 9.42502 11.5167 9.50002 12 9.50002C12.4833 9.50002 12.9 9.42502 13.25 9.27502C13.6 9.12502 13.95 8.96236 14.3 8.78702C14.65 8.61236 15.0333 8.45402 15.45 8.31202C15.8667 8.17069 16.3833 8.10002 17 8.10002C17.6333 8.10002 18.1583 8.17069 18.575 8.31202C18.9917 8.45402 19.375 8.61236 19.725 8.78702C20.075 8.96236 20.425 9.12502 20.775 9.27502C21.125 9.42502 21.5333 9.50002 22 9.50002V11.45C21.3667 11.45 20.8377 11.375 20.413 11.225C19.9877 11.075 19.6 10.9127 19.25 10.738C18.9 10.5627 18.5583 10.404 18.225 10.262C17.8917 10.1207 17.4833 10.05 17 10.05C16.5333 10.05 16.1293 10.1207 15.788 10.262C15.446 10.404 15.104 10.5627 14.762 10.738C14.4207 10.9127 14.0377 11.075 13.613 11.225C13.1877 11.375 12.65 11.45 12 11.45C11.35 11.45 10.8123 11.375 10.387 11.225C9.96233 11.075 9.57933 10.9127 9.238 10.738C8.896 10.5627 8.55833 10.404 8.225 10.262C7.89167 10.1207 7.48333 10.05 7 10.05C6.53333 10.05 6.12933 10.1207 5.788 10.262C5.446 10.404 5.1 10.5627 4.75 10.738C4.4 10.9127 4.01267 11.075 3.588 11.225C3.16267 11.375 2.63333 11.45 2 11.45ZM2 7.00002V5.05002C2.48333 5.05002 2.89567 4.97502 3.237 4.82502C3.579 4.67502 3.925 4.51236 4.275 4.33702C4.625 4.16236 5.01267 4.00402 5.438 3.86202C5.86267 3.72069 6.38333 3.65002 7 3.65002C7.63333 3.65002 8.154 3.72069 8.562 3.86202C8.97067 4.00402 9.35 4.16236 9.7 4.33702C10.05 4.51236 10.4 4.67502 10.75 4.82502C11.1 4.97502 11.5167 5.05002 12 5.05002C12.4833 5.05002 12.9 4.97502 13.25 4.82502C13.6 4.67502 13.95 4.51236 14.3 4.33702C14.65 4.16236 15.0333 4.00402 15.45 3.86202C15.8667 3.72069 16.3833 3.65002 17 3.65002C17.6333 3.65002 18.1583 3.72069 18.575 3.86202C18.9917 4.00402 19.375 4.16236 19.725 4.33702C20.075 4.51236 20.425 4.67502 20.775 4.82502C21.125 4.97502 21.5333 5.05002 22 5.05002V7.00002C21.3667 7.00002 20.8377 6.92502 20.413 6.77502C19.9877 6.62502 19.6 6.46236 19.25 6.28702C18.9 6.11236 18.5583 5.95402 18.225 5.81202C17.8917 5.67069 17.4833 5.60002 17 5.60002C16.5333 5.60002 16.1293 5.67069 15.788 5.81202C15.446 5.95402 15.104 6.11236 14.762 6.28702C14.4207 6.46236 14.0377 6.62502 13.613 6.77502C13.1877 6.92502 12.65 7.00002 12 7.00002C11.35 7.00002 10.8123 6.92502 10.387 6.77502C9.96233 6.62502 9.57933 6.46236 9.238 6.28702C8.896 6.11236 8.55833 5.95402 8.225 5.81202C7.89167 5.67069 7.48333 5.60002 7 5.60002C6.53333 5.60002 6.12933 5.67069 5.788 5.81202C5.446 5.95402 5.1 6.11236 4.75 6.28702C4.4 6.46236 4.01267 6.62502 3.588 6.77502C3.16267 6.92502 2.63333 7.00002 2 7.00002Z" fill="#ED6A6A" />
  </g>
</svg>